# xmcd
#
# Track frame offsets:
#	150
#	18484
#	39750
#	58875
#	75244
#	89648
#	98904
#	103835
#	111502
#	126461
#	145762
#	162998
#	180754
#	201074
#	217139
#	238341
#
# Disc length: 3540 seconds
#
# Revision: 0
# Processed by: cddbd v1.5.1PL2 Copyright (c) Steve Scherf et al.
# Submitted via: audiograbber 1.83.01
#
DISCID=e20dd210
DTITLE=мотгс сжайиамайгс - еуаисхгтес мотес  CD 2
DYEAR=2004
DGENRE=каийа
TTITLE0=йаи дем лпояы 
TTITLE1=ецы тяацоудаца 
TTITLE2=ти тоу кес йаи ти соу кееи 
TTITLE3=деутеяа веяиа 
TTITLE4=астяа лг ле лакымете 
TTITLE5=гтаме лиа жояа 
TTITLE6=ASTAR AMENGE DUR 
TTITLE7=ха то танидеьы то йояли 
TTITLE8=апоцеула хкиллемо 
TTITLE9=мауациа 
TTITLE10=RAIN 
TTITLE11=SORRY SEEMS TO BE THE HARDEST WORD 
TTITLE12=BLACK MAGIC WOMAN 
TTITLE13=SOLDIER OF FORTUNE 
TTITLE14=TRY ME 
TTITLE15=THE WORLD IS A GHETO 
EXTD=
EXTT0=
EXTT1=
EXTT2=
EXTT3=
EXTT4=
EXTT5=
EXTT6=
EXTT7=
EXTT8=
EXTT9=
EXTT10=
EXTT11=
EXTT12=
EXTT13=
EXTT14=
EXTT15=
PLAYORDER=
